<?xml version="1.0" standalone="no"?><!DOCTYPE svg PUBLIC "-//W3C//DTD SVG 1.1//EN" "http://www.w3.org/Graphics/SVG/1.1/DTD/svg11.dtd"><svg t="1701869297655" class="icon" viewBox="0 0 1024 1024" version="1.1" xmlns="http://www.w3.org/2000/svg" p-id="4276" xmlns:xlink="http://www.w3.org/1999/xlink" width="128" height="128"><path d="M931.31264 882.78016L808.96 760.42752a408.19712 408.19712 0 0 0 67.21024-110.99648 410.3936 410.3936 0 0 0 30.16192-154.94656 410.3936 410.3936 0 0 0-30.16192-154.94656c-20.736-51.13344-51.1744-96.98304-90.4704-136.27392-39.296-39.296-85.1456-69.72928-136.27904-90.4704a410.3936 410.3936 0 0 0-154.94656-30.16192 410.3936 410.3936 0 0 0-154.94656 30.16192c-51.13344 20.736-96.98304 51.1744-136.27904 90.4704S133.5296 288.4096 112.7936 339.53792a410.37312 410.37312 0 0 0-30.16192 154.94656 410.3936 410.3936 0 0 0 30.16192 154.94656c20.736 51.13344 51.1744 96.98304 90.4704 136.27904s85.1456 69.72928 136.27904 90.4704a410.37312 410.37312 0 0 0 154.94656 30.16192 410.3936 410.3936 0 0 0 154.94656-30.16192 407.99232 407.99232 0 0 0 110.99648-67.21024l122.35264 122.35264a34.31936 34.31936 0 1 0 48.52736-48.54272z m-679.51616-145.6128c-134.03136-134.03136-134.03136-351.34464 0-485.37088 134.03136-134.03136 351.34464-134.03136 485.37088 0 134.02624 134.02624 134.03136 351.3344 0 485.37088-134.03136 134.03136-351.33952 134.03136-485.37088 0z" fill="#CCCCCC" p-id="4277"></path></svg>